<svg width="1650" height="536" viewBox="0 0 1650 536" fill="none" xmlns="http://www.w3.org/2000/svg">
<path d="M1567.85 535.5H79.8497C43.8496 535.5 1.34961 506.5 0.849646 455.501C0.0629402 375.251 0.849631 330.448 0.849631 250C0.849631 216 27.8496 170.5 82.3496 170.5C196.578 170.5 285.339 170.5 374.1 170.5L665.85 170.5C706.85 170.5 744.35 136 744.35 90.5005V80C744.35 44.4995 771.85 0.5 825.85 0.5L1197.85 0.500244L1569.85 0.500488C1610.35 0.500488 1648.85 33.5005 1648.85 81.5005V455.501C1648.85 489.001 1623.35 535.5 1567.85 535.5Z" fill="black" stroke="black" stroke-opacity="0.36"/>
</svg>
